<svg id="sw-js-blob-svg" width="700" viewBox="0 0 100 100" xmlns="http://www.w3.org/2000/svg">
            <defs>
                <linearGradient id="sw-gradient" x1="0" x2="1" y1="1" y2="0">
                    <stop id="stop1" stop-color="rgba(255, 255, 255, 0.07058823529411765)" offset="0%"></stop>
                    <stop id="stop2" stop-color="rgba(255, 255, 255, 0.07058823529411765)" offset="100%"></stop>
                </linearGradient>
            </defs>
            <path fill="url(#sw-gradient)" d="M25.7,-29.3C33.7,-24,40.7,-16.2,40.8,-8.3C41,-0.3,34.3,7.8,28.6,15.5C23,23.2,18.4,30.6,11.6,34C4.8,37.4,-4.2,36.9,-11.6,33.5C-19.1,30.1,-24.9,23.9,-28.4,16.9C-31.8,9.8,-32.9,1.9,-32.3,-6.4C-31.7,-14.7,-29.4,-23.5,-23.7,-29.2C-18,-34.9,-9,-37.6,-0.1,-37.5C8.9,-37.4,17.8,-34.6,25.7,-29.3Z" width="100%" height="100%" transform="translate(50 50)" stroke-width="0" style="transition: 0.3s;" stroke="url(#sw-gradient)"></path>
</svg>