<svg xmlns="http://www.w3.org/2000/svg" viewBox="0 0 1440 320"><path fill="#ffffff12" fill-opacity="1" d="M0,192L30,192C60,192,120,192,180,208C240,224,300,256,360,272C420,288,480,288,540,277.3C600,267,660,245,720,245.3C780,245,840,267,900,277.3C960,288,1020,288,1080,282.7C1140,277,1200,267,1260,250.7C1320,235,1380,213,1410,202.7L1440,192L1440,320L1410,320C1380,320,1320,320,1260,320C1200,320,1140,320,1080,320C1020,320,960,320,900,320C840,320,780,320,720,320C660,320,600,320,540,320C480,320,420,320,360,320C300,320,240,320,180,320C120,320,60,320,30,320L0,320Z"></path></svg>